<svg width="512" height="512" viewBox="0 0 512 512" fill="none" xmlns="http://www.w3.org/2000/svg">
  <defs>
    <linearGradient id="tricolor" x1="256" y1="0" x2="256" y2="512" gradientUnits="userSpaceOnUse">
      <stop offset="0" stop-color="#FF9933"/>
      <stop offset="0.5" stop-color="#FFFFFF"/>
      <stop offset="1" stop-color="#138808"/>
    </linearGradient>
    <filter id="shadow" x="0" y="0" width="512" height="512" filterUnits="userSpaceOnUse" color-interpolation-filters="sRGB">
      <feFlood flood-opacity="0" result="BackgroundImageFix"/>
      <feColorMatrix in="SourceAlpha" type="matrix" values="0 0 0 0 0 0 0 0 0 0 0 0 0 0 0 0 0 0 127 0" result="hardAlpha"/>
      <feOffset dy="4"/>
      <feGaussianBlur stdDeviation="8"/>
      <feComposite in2="hardAlpha" operator="out"/>
      <feColorMatrix type="matrix" values="0 0 0 0 0 0 0 0 0 0 0 0 0 0 0 0 0 0 0.1 0"/>
      <feBlend mode="normal" in2="BackgroundImageFix" result="effect1_dropShadow"/>
      <feBlend mode="normal" in="SourceGraphic" in2="effect1_dropShadow" result="shape"/>
    </filter>
  </defs>
  
  <g filter="url(#shadow)">
    <!-- Shield Base -->
    <path d="M256 32C160 32 64 64 64 64V256C64 362 148 458 256 480C364 458 448 362 448 256V64C448 64 352 32 256 32Z" fill="white"/>
    
    <!-- Saffron Top -->
    <path d="M256 32C160 32 64 64 64 64V160H448V64C448 64 352 32 256 32Z" fill="#FF9933"/>
    
    <!-- Green Bottom -->
    <path d="M64 352V256C64 362 148 458 256 480C364 458 448 362 448 256V352H64Z" fill="#138808"/>
    
    <!-- Chakra (Simplified) -->
    <circle cx="256" cy="256" r="48" stroke="#000080" stroke-width="8" fill="none"/>
    <circle cx="256" cy="256" r="8" fill="#000080"/>
    <g stroke="#000080" stroke-width="4">
        <line x1="256" y1="208" x2="256" y2="304"/>
        <line x1="208" y1="256" x2="304" y2="256"/>
        <line x1="222" y1="222" x2="290" y2="290"/>
        <line x1="290" y1="222" x2="222" y2="290"/>
    </g>
  </g>
</svg>
